{
  "accessors": [
    {
      "bufferView": 2,
      "componentType": 5126,
      "count": 2400,
      "max": [
        0.012582000344991684,
        -0.008655999787151814,
        0.6248000264167786
      ],
      "min": [
        -0.010747999884188175,
        -0.014406999573111534,
        0.6183819770812988
      ],
      "type": "VEC3"
    },
    {
      "bufferView": 2,
      "byteOffset": 28800,
      "componentType": 5126,
      "count": 2400,
      "max": [
        1.0,
        1.0,
        1.0
      ],
      "min": [
        -1.0,
        -1.0,
        -0.9905783534049988
      ],
      "type": "VEC3"
    },
    {
      "bufferView": 1,
      "componentType": 5126,
      "count": 2400,
      "max": [
        2.803934097290039,
        0.8480809926986694
      ],
      "min": [
        2.1077709197998047,
        0.15191900730133057
      ],
      "type": "VEC2"
    },
    {
      "bufferView": 0,
      "componentType": 5125,
      "count": 13824,
      "type": "SCALAR"
    },
    {
      "bufferView": 2,
      "byteOffset": 57600,
      "componentType": 5126,
      "count": 30,
      "max": [
        0.012047000229358673,
        -0.008576000109314919,
        0.6240440011024475
      ],
      "min": [
        -0.009704000316560268,
        -0.013756999745965004,
        0.6190019845962524
      ],
      "type": "VEC3"
    },
    {
      "bufferView": 2,
      "byteOffset": 57960,
      "componentType": 5126,
      "count": 30,
      "max": [
        0.7294108271598816,
        -0.5847638845443726,
        -0.17754200100898743
      ],
      "min": [
        -0.4722619950771332,
        -0.8834326863288879,
        -0.6565249562263489
      ],
      "type": "VEC3"
    },
    {
      "bufferView": 1,
      "byteOffset": 19200,
      "componentType": 5126,
      "count": 30,
      "max": [
        0.09697400033473969,
        1.839874029159546
      ],
      "min": [
        0.06025199964642525,
        1.829874038696289
      ],
      "type": "VEC2"
    },
    {
      "bufferView": 0,
      "byteOffset": 55296,
      "componentType": 5125,
      "count": 96,
      "type": "SCALAR"
    },
    {
      "bufferView": 2,
      "byteOffset": 58320,
      "componentType": 5126,
      "count": 65532,
      "max": [
        0.07660800218582153,
        0.08122099936008453,
        0.7357450127601624
      ],
      "min": [
        -0.11682900041341782,
        -0.037668999284505844,
        0.36636900901794434
      ],
      "type": "VEC3"
    },
    {
      "bufferView": 2,
      "byteOffset": 844704,
      "componentType": 5126,
      "count": 65532,
      "max": [
        0.9999558925628662,
        0.9999871253967285,
        0.99984210729599
      ],
      "min": [
        -0.9999991059303284,
        -0.9999963641166687,
        -0.9967643618583679
      ],
      "type": "VEC3"
    },
    {
      "bufferView": 1,
      "byteOffset": 19440,
      "componentType": 5126,
      "count": 65532,
      "max": [
        3.742495059967041,
        3.806741952896118
      ],
      "min": [
        -0.5110710263252258,
        1.1740410327911377
      ],
      "type": "VEC2"
    },
    {
      "bufferView": 0,
      "byteOffset": 55680,
      "componentType": 5125,
      "count": 366831,
      "type": "SCALAR"
    },
    {
      "bufferView": 2,
      "byteOffset": 1631088,
      "componentType": 5126,
      "count": 43890,
      "max": [
        0.11651600152254105,
        0.08122099936008453,
        0.6215320229530334
      ],
      "min": [
        -0.11524900048971176,
        -0.03952699899673462,
        0.3696860074996948
      ],
      "type": "VEC3"
    },
    {
      "bufferView": 2,
      "byteOffset": 2157768,
      "componentType": 5126,
      "count": 43890,
      "max": [
        0.999963641166687,
        0.9999997615814209,
        0.9981296062469482
      ],
      "min": [
        -0.9999305009841919,
        -0.9999978542327881,
        -0.9786877632141113
      ],
      "type": "VEC3"
    },
    {
      "bufferView": 1,
      "byteOffset": 543696,
      "componentType": 5126,
      "count": 43890,
      "max": [
        3.790199041366577,
        3.6790339946746826
      ],
      "min": [
        0.3191100060939789,
        0.4365769922733307
      ],
      "type": "VEC2"
    },
    {
      "bufferView": 0,
      "byteOffset": 1523004,
      "componentType": 5125,
      "count": 233664,
      "type": "SCALAR"
    },
    {
      "bufferView": 2,
      "byteOffset": 2684448,
      "componentType": 5126,
      "count": 8426,
      "max": [
        0.003728999989107251,
        0.05882599949836731,
        0.6134809851646423
      ],
      "min": [
        -0.0022060000337660313,
        0.054055001586675644,
        0.60835200548172
      ],
      "type": "VEC3"
    },
    {
      "bufferView": 2,
      "byteOffset": 2785560,
      "componentType": 5126,
      "count": 8426,
      "max": [
        1.0,
        1.0,
        1.0
      ],
      "min": [
        -1.0,
        -1.0,
        -1.0
      ],
      "type": "VEC3"
    },
    {
      "bufferView": 1,
      "byteOffset": 894816,
      "componentType": 5126,
      "count": 8426,
      "max": [
        -0.031074000522494316,
        -0.025560999289155006
      ],
      "min": [
        -0.9910669922828674,
        -0.9855610132217407
      ],
      "type": "VEC2"
    },
    {
      "bufferView": 0,
      "byteOffset": 2457660,
      "componentType": 5125,
      "count": 37476,
      "type": "SCALAR"
    },
    {
      "bufferView": 2,
      "byteOffset": 2886672,
      "componentType": 5126,
      "count": 460,
      "max": [
        -0.008821000345051289,
        -0.019029000774025917,
        0.5685439705848694
      ],
      "min": [
        -0.011769999749958515,
        -0.02251099981367588,
        0.5637199878692627
      ],
      "type": "VEC3"
    },
    {
      "bufferView": 2,
      "byteOffset": 2892192,
      "componentType": 5126,
      "count": 460,
      "max": [
        0.9962028861045837,
        0.9962901473045349,
        0.9999690055847168
      ],
      "min": [
        -0.9962618947029114,
        -0.9962342381477356,
        -0.9999722242355347
      ],
      "type": "VEC3"
    },
    {
      "bufferView": 1,
      "byteOffset": 962224,
      "componentType": 5126,
      "count": 460,
      "max": [
        0.8117499947547913,
        -0.060478001832962036
      ],
      "min": [
        0.10257399827241898,
        -0.7670360207557678
      ],
      "type": "VEC2"
    },
    {
      "bufferView": 0,
      "byteOffset": 2607564,
      "componentType": 5125,
      "count": 2304,
      "type": "SCALAR"
    },
    {
      "bufferView": 2,
      "byteOffset": 2897712,
      "componentType": 5126,
      "count": 460,
      "max": [
        0.00045399999362416565,
        -0.015085999853909016,
        0.5657359957695007
      ],
      "min": [
        -0.001521000056527555,
        -0.01805800013244152,
        0.5608789920806885
      ],
      "type": "VEC3"
    },
    {
      "bufferView": 2,
      "byteOffset": 2903232,
      "componentType": 5126,
      "count": 460,
      "max": [
        0.9962028861045837,
        0.9962901473045349,
        0.9999690055847168
      ],
      "min": [
        -0.9962618947029114,
        -0.9962342381477356,
        -0.9999722242355347
      ],
      "type": "VEC3"
    },
    {
      "bufferView": 1,
      "byteOffset": 965904,
      "componentType": 5126,
      "count": 460,
      "max": [
        1.7841720581054688,
        -0.08618099987506866
      ],
      "min": [
        1.074995994567871,
        -0.7927389740943909
      ],
      "type": "VEC2"
    },
    {
      "bufferView": 0,
      "byteOffset": 2616780,
      "componentType": 5125,
      "count": 2304,
      "type": "SCALAR"
    },
    {
      "bufferView": 2,
      "byteOffset": 2908752,
      "componentType": 5126,
      "count": 11373,
      "max": [
        0.11742199957370758,
        0.07283499836921692,
        0.3836120069026947
      ],
      "min": [
        -0.1170400008559227,
        -0.03639400005340576,
        0.3496989905834198
      ],
      "type": "VEC3"
    },
    {
      "bufferView": 2,
      "byteOffset": 3045228,
      "componentType": 5126,
      "count": 11373,
      "max": [
        0.9999703764915466,
        0.999991774559021,
        0.9183000922203064
      ],
      "min": [
        -0.9999520182609558,
        -0.9999342560768127,
        -0.9999896287918091
      ],
      "type": "VEC3"
    },
    {
      "bufferView": 1,
      "byteOffset": 969584,
      "componentType": 5126,
      "count": 11373,
      "max": [
        1.8835010528564453,
        1.6117379665374756
      ],
      "min": [
        -0.5865640044212341,
        0.7143650054931641
      ],
      "type": "VEC2"
    },
    {
      "bufferView": 0,
      "byteOffset": 2625996,
      "componentType": 5125,
      "count": 63726,
      "type": "SCALAR"
    },
    {
      "bufferView": 2,
      "byteOffset": 3181704,
      "componentType": 5126,
      "count": 193,
      "max": [
        0.011025999672710896,
        -0.009151999838650227,
        0.6239749789237976
      ],
      "min": [
        -0.0104179996997118,
        -0.02046000026166439,
        0.5652989745140076
      ],
      "type": "VEC3"
    },
    {
      "bufferView": 2,
      "byteOffset": 3184020,
      "componentType": 5126,
      "count": 193,
      "max": [
        0.6167358756065369,
        -0.7165552377700806,
        0.4712032377719879
      ],
      "min": [
        -0.6729747653007507,
        -0.9997460246086121,
        -0.11876195669174194
      ],
      "type": "VEC3"
    },
    {
      "bufferView": 1,
      "byteOffset": 1060568,
      "componentType": 5126,
      "count": 193,
      "max": [
        0.12655800580978394,
        1.7766809463500977
      ],
      "min": [
        0.062238000333309174,
        1.6216390132904053
      ],
      "type": "VEC2"
    },
    {
      "bufferView": 0,
      "byteOffset": 2880900,
      "componentType": 5125,
      "count": 753,
      "type": "SCALAR"
    }
  ],
  "asset": {
    "extras": {
      "author": "Virtual Pandora (https://sketchfab.com/virtualpandora)",
      "license": "CC-BY-4.0 (http://creativecommons.org/licenses/by/4.0/)",
      "source": "https://sketchfab.com/3d-models/hoodie-97611a53e3b846f69e0655b210f72b2f",
      "title": "Hoodie"
    },
    "generator": "Sketchfab-10.50.0",
    "version": "2.0"
  },
  "bufferViews": [
    {
      "buffer": 0,
      "byteLength": 2883912,
      "name": "floatBufferViews",
      "target": 34963
    },
    {
      "buffer": 0,
      "byteLength": 1062112,
      "byteOffset": 2883912,
      "byteStride": 8,
      "name": "floatBufferViews",
      "target": 34962
    },
    {
      "buffer": 0,
      "byteLength": 3186336,
      "byteOffset": 3946024,
      "byteStride": 12,
      "name": "floatBufferViews",
      "target": 34962
    }
  ],
  "buffers": [
    {
      "byteLength": 7132360,
      "uri": "scene.bin"
    }
  ],
  "materials": [
    {
      "doubleSided": true,
      "name": "BTN_FABRIC_FRONT_1944972",
      "pbrMetallicRoughness": {
        "metallicFactor": 0.0,
        "roughnessFactor": 0.6
      }
    },
    {
      "doubleSided": true,
      "name": "Holes_FRONT_1944945",
      "pbrMetallicRoughness": {
        "metallicFactor": 0.0,
        "roughnessFactor": 0.9827475502465659
      }
    },
    {
      "doubleSided": true,
      "name": "Knit_Fleece_Terry_FRONT_1944906",
      "pbrMetallicRoughness": {
        "baseColorFactor": [
          0.7511371806237102,
          0.5273320624674238,
          0.044705836284779005,
          1.0
        ],
        "metallicFactor": 0.0,
        "roughnessFactor": 0.9827475502465659
      }
    },
    {
      "doubleSided": true,
      "name": "Material125269",
      "pbrMetallicRoughness": {
        "baseColorFactor": [
          0.446767,
          0.286059,
          0.199277,
          1.0
        ],
        "metallicFactor": 0.0,
        "roughnessFactor": 0.6972772905086628
      }
    },
    {
      "doubleSided": true,
      "name": "Material2501413",
      "pbrMetallicRoughness": {
        "baseColorFactor": [
          0.446767,
          0.286059,
          0.199277,
          1.0
        ],
        "metallicFactor": 0.0,
        "roughnessFactor": 0.6972772905086628
      }
    },
    {
      "doubleSided": true,
      "name": "Material2501423",
      "pbrMetallicRoughness": {
        "baseColorFactor": [
          0.446767,
          0.286059,
          0.199277,
          1.0
        ],
        "metallicFactor": 0.0,
        "roughnessFactor": 0.6972772905086628
      }
    },
    {
      "doubleSided": true,
      "name": "Rib_wide_FRONT_1944924",
      "pbrMetallicRoughness": {
        "baseColorFactor": [
          0.5000627097290768,
          0.3744774557786291,
          0.01289226192777906,
          1.0
        ],
        "metallicFactor": 0.0,
        "roughnessFactor": 0.9827475502465659
      }
    },
    {
      "doubleSided": true,
      "name": "Straps_FRONT_1944954",
      "pbrMetallicRoughness": {
        "baseColorFactor": [
          0.03174284259165685,
          0.0237424162725955,
          0.0237424162725955,
          1.0
        ],
        "metallicFactor": 0.0,
        "roughnessFactor": 0.9827475502465659
      }
    }
  ],
  "meshes": [
    {
      "name": "Object_0",
      "primitives": [
        {
          "attributes": {
            "NORMAL": 1,
            "POSITION": 0,
            "TEXCOORD_0": 2
          },
          "indices": 3,
          "material": 0,
          "mode": 4
        }
      ]
    },
    {
      "name": "Object_1",
      "primitives": [
        {
          "attributes": {
            "NORMAL": 5,
            "POSITION": 4,
            "TEXCOORD_0": 6
          },
          "indices": 7,
          "material": 1,
          "mode": 4
        }
      ]
    },
    {
      "name": "Object_2",
      "primitives": [
        {
          "attributes": {
            "NORMAL": 9,
            "POSITION": 8,
            "TEXCOORD_0": 10
          },
          "indices": 11,
          "material": 2,
          "mode": 4
        }
      ]
    },
    {
      "name": "Object_3",
      "primitives": [
        {
          "attributes": {
            "NORMAL": 13,
            "POSITION": 12,
            "TEXCOORD_0": 14
          },
          "indices": 15,
          "material": 2,
          "mode": 4
        }
      ]
    },
    {
      "name": "Object_4",
      "primitives": [
        {
          "attributes": {
            "NORMAL": 17,
            "POSITION": 16,
            "TEXCOORD_0": 18
          },
          "indices": 19,
          "material": 3,
          "mode": 4
        }
      ]
    },
    {
      "name": "Object_5",
      "primitives": [
        {
          "attributes": {
            "NORMAL": 21,
            "POSITION": 20,
            "TEXCOORD_0": 22
          },
          "indices": 23,
          "material": 4,
          "mode": 4
        }
      ]
    },
    {
      "name": "Object_6",
      "primitives": [
        {
          "attributes": {
            "NORMAL": 25,
            "POSITION": 24,
            "TEXCOORD_0": 26
          },
          "indices": 27,
          "material": 5,
          "mode": 4
        }
      ]
    },
    {
      "name": "Object_7",
      "primitives": [
        {
          "attributes": {
            "NORMAL": 29,
            "POSITION": 28,
            "TEXCOORD_0": 30
          },
          "indices": 31,
          "material": 6,
          "mode": 4
        }
      ]
    },
    {
      "name": "Object_8",
      "primitives": [
        {
          "attributes": {
            "NORMAL": 33,
            "POSITION": 32,
            "TEXCOORD_0": 34
          },
          "indices": 35,
          "material": 7,
          "mode": 4
        }
      ]
    }
  ],
  "nodes": [
    {
      "children": [
        1
      ],
      "matrix": [
        1.0,
        0.0,
        0.0,
        0.0,
        0.0,
        2.220446049250313e-16,
        -1.0,
        0.0,
        0.0,
        1.0,
        2.220446049250313e-16,
        0.0,
        0.0,
        0.0,
        0.0,
        1.0
      ],
      "name": "Sketchfab_model"
    },
    {
      "children": [
        2,
        3,
        4,
        5,
        6,
        7,
        8,
        9,
        10
      ],
      "name": "Hoodie_0.obj.cleaner.materialmerger.gles"
    },
    {
      "mesh": 0,
      "name": "Object_2"
    },
    {
      "mesh": 1,
      "name": "Object_3"
    },
    {
      "mesh": 2,
      "name": "Object_4"
    },
    {
      "mesh": 3,
      "name": "Object_5"
    },
    {
      "mesh": 4,
      "name": "Object_6"
    },
    {
      "mesh": 5,
      "name": "Object_7"
    },
    {
      "mesh": 6,
      "name": "Object_8"
    },
    {
      "mesh": 7,
      "name": "Object_9"
    },
    {
      "mesh": 8,
      "name": "Object_10"
    }
  ],
  "scene": 0,
  "scenes": [
    {
      "name": "Sketchfab_Scene",
      "nodes": [
        0
      ]
    }
  ]
}
